<?xml version="1.0" encoding="utf-8"?>
<!-- Svg Vector Icons : http://www.onlinewebfonts.com/icon -->
<!DOCTYPE svg PUBLIC "-//W3C//DTD SVG 1.1//EN" "http://www.w3.org/Graphics/SVG/1.1/DTD/svg11.dtd">
<svg version="1.1" xmlns="http://www.w3.org/2000/svg" xmlns:xlink="http://www.w3.org/1999/xlink" x="0px" y="0px" viewBox="0 0 256 256" enable-background="new 0 0 256 256" xml:space="preserve">
<metadata> Svg Vector Icons : http://www.onlinewebfonts.com/icon </metadata>
<g><g><g><path fill="#000000" d="M15.5,50.2c-1.1,0.6-2.8,2-3.7,3.1c-2.4,3.1-2.3,8.3,0,11.3c3.4,4.6-6.6,4.2,116.2,4.2c122.8,0,112.8,0.4,116.2-4.2c1.4-1.8,1.7-2.8,1.7-5.7s-0.3-3.9-1.7-5.7c-3.4-4.6,6.6-4.2-116.4-4.2C27,49.2,17.4,49.3,15.5,50.2z"/><path fill="#000000" d="M15.5,119.2c-1.1,0.6-2.8,2-3.7,3.1c-2.4,3.1-2.3,8.3,0,11.3c3.4,4.6-6.6,4.2,116.2,4.2c122.8,0,112.8,0.4,116.2-4.2c1.4-1.8,1.7-2.8,1.7-5.7s-0.3-3.9-1.7-5.7c-3.4-4.6,6.6-4.2-116.4-4.2C27,118.1,17.4,118.3,15.5,119.2z"/><path fill="#000000" d="M15.7,188c-5.7,2.5-7.5,9.9-3.7,14.8c3.3,4.3-6.3,4,116.1,4c122.8,0,112.8,0.4,116.2-4.2c1.4-1.8,1.7-2.8,1.7-5.7s-0.3-3.9-1.7-5.7c-3.4-4.6,6.6-4.2-116.4-4.2C37.6,187.2,17.2,187.3,15.7,188z"/></g></g></g>
</svg>