<?xml version="1.0" encoding="UTF-8" standalone="no"?>
<!-- Created with Inkscape (http://www.inkscape.org/) -->

<svg
   version="1.1"
   id="svg182"
   width="1400"
   height="1250"
   viewBox="0 0 1400 1250"
   sodipodi:docname="Suthesh-portfolio-dino-swap.svg"
   xml:space="preserve"
   inkscape:version="1.2.2 (732a01da63, 2022-12-09)"
   xmlns:inkscape="http://www.inkscape.org/namespaces/inkscape"
   xmlns:sodipodi="http://sodipodi.sourceforge.net/DTD/sodipodi-0.dtd"
   xmlns="http://www.w3.org/2000/svg"
   xmlns:svg="http://www.w3.org/2000/svg"><defs
     id="defs186"><filter
       inkscape:collect="always"
       style="color-interpolation-filters:sRGB"
       id="filter3429"
       x="-0.10984306"
       y="-0.10924975"
       width="1.2196861"
       height="1.2184995"><feGaussianBlur
         inkscape:collect="always"
         stdDeviation="51.207564"
         id="feGaussianBlur3431" /></filter></defs><sodipodi:namedview
     id="namedview184"
     pagecolor="#ffffff"
     bordercolor="#cccccc"
     borderopacity="1"
     inkscape:showpageshadow="0"
     inkscape:pageopacity="1"
     inkscape:pagecheckerboard="0"
     inkscape:deskcolor="#d1d1d1"
     showgrid="false"
     inkscape:zoom="0.26033253"
     inkscape:cx="178.61771"
     inkscape:cy="647.24913"
     inkscape:window-width="1920"
     inkscape:window-height="1051"
     inkscape:window-x="-9"
     inkscape:window-y="-9"
     inkscape:window-maximized="1"
     inkscape:current-layer="g188"
     showguides="true"><sodipodi:guide
       position="553.13872,1491.9982"
       orientation="0,-1"
       id="guide3050"
       inkscape:locked="false" /></sodipodi:namedview><g
     inkscape:groupmode="layer"
     inkscape:label="Image"
     id="g188"><path
       fill="#ff0066"
       d="M 1082.0378,429.08372 C 1175.1928,669.05941 1124.6514,967.4793 942.30516,1080.826 758.96808,1194.1722 443.82665,1123.3307 245.62448,978.1055 47.422276,832.88042 -33.84059,613.27167 30.575113,409.60232 94.99083,205.04736 305.08517,16.431812 528.0626,12.004196 752.03102,8.462153 988.88281,189.99352 1082.0378,429.08372 Z"
       id="path182-8-2"
       style="opacity:0.371658;mix-blend-mode:normal;fill:#000000;fill-opacity:1;stroke-width:9.36783;filter:url(#filter3429)"
       transform="matrix(0.94709572,0,0,0.933076,133.40336,86.54228)" /><path
       fill="#ff0066"
       d="m 1198.6033,486.59829 c 83.8347,209.38827 38.35,469.77141 -125.7521,568.67081 -164.99387,98.8991 -448.60478,37.0871 -626.97642,-89.6275 C 267.50311,838.92686 194.37075,647.30956 252.34153,469.60001 310.31233,291.11772 499.3863,126.5432 700.0544,122.67993 c 201.55993,-3.09057 414.7143,155.30272 498.5489,363.91836 z"
       id="path182-4"
       style="fill:#f2f2f2;stroke-width:8.30119" /><g
       id="g6409"
       style="display:inline;mix-blend-mode:normal;fill:#000000;fill-opacity:1"
       transform="matrix(19.347501,0,0,23.587519,-263.9993,-963.39)"><g
         aria-label="S"
         transform="matrix(0.82940165,0.2359965,-0.34600465,1.1072369,6.1962294,18.441828)"
         id="text6356"
         style="font-weight:bold;font-size:22.6256px;font-family:'Segoe Print';-inkscape-font-specification:'Segoe Print Bold';fill:#000000;fill-opacity:1;stroke-width:6.5669"><path
           d="m 68.604532,25.188794 c 0.187753,-1.083517 -0.912955,-2.083983 -1.971064,-1.924616 -1.893812,-0.09742 -3.923227,0.598341 -5.11857,2.117252 -0.561141,0.980175 0.229706,2.219362 1.268752,2.417029 2.245332,0.968108 4.898094,1.191224 6.73775,2.947548 0.927602,0.918511 0.891472,2.505389 0.06431,3.477775 -1.235065,1.657929 -3.220528,2.507234 -5.105205,3.201132 -1.806214,0.589816 -3.780957,0.911383 -5.655179,0.478414 -1.094094,-0.370137 -1.532024,-1.953414 -0.600265,-2.719923 0.900742,-0.516271 1.804409,0.33375 2.729535,0.330832 2.052037,0.175803 4.020913,-0.684832 5.763135,-1.679757 0.869789,-0.529648 0.845702,-1.939982 -0.268056,-2.128124 -2.245434,-1.044856 -4.856841,-1.332729 -6.848429,-2.88878 -1.340136,-1.307698 -1.202579,-3.645727 0.08313,-4.943263 2.10607,-2.490849 5.68112,-3.560173 8.833706,-2.833506 1.146808,0.280628 2.351498,1.223955 2.229404,2.522444 -0.104364,1.05419 -1.120932,1.753923 -2.142949,1.625543 z"
           id="path6367"
           class="UnoptimicedTransforms"
           style="fill:#000000;fill-opacity:1" /></g><path
         id="path6364"
         style="fill:#000000;fill-opacity:1;stroke-width:0.360536"
         d="m 53.412439,62.992365 a 0.87000954,0.8539021 0 0 1 -0.864576,0.853886 0.87000954,0.8539021 0 0 1 -0.875375,-0.843219 0.87000954,0.8539021 0 0 1 0.85364,-0.864419 0.87000954,0.8539021 0 0 1 0.88604,0.832421" /><path
         style="fill:#000000;fill-opacity:1;stroke-width:0.108552;stroke-dasharray:none"
         d="m 56.739394,65.040091 c 1.038495,-5.173412 9.612614,-3.566628 11.027238,0.604605 1.590554,5.896936 -4.947331,8.04101 -9.542135,8.422042 -3.003694,0.257268 -3.692823,4.692759 -5.710519,4.822904 -1.831424,-3.427162 2.027575,-8.338548 6.03856,-7.619674 3.639148,1.158771 9.934732,-3.388508 5.123493,-6.169581 -2.232459,-0.764102 -4.653281,-0.301931 -6.936637,-0.0603 z"
         id="path11346" /></g><path
       fill="#ff0066"
       d="m -1338.8866,-23.553856 c 83.8347,209.388196 38.35,469.771496 -125.7521,568.670796 -164.9939,98.8991 -448.6048,37.0871 -626.9764,-89.6276 -178.3717,-126.7147 -251.504,-318.332 -193.5332,-496.041496 57.9707,-178.482404 247.0447,-343.056804 447.7128,-346.920104 201.56,-3.0906 414.7142,155.3027 498.5489,363.918404 z"
       id="path3052"
       style="fill:#00ffff;stroke-width:8.30119" /><path
       fill="#ff0066"
       d="m -1213.3224,6.7622441 c 83.8346,209.3882959 38.35,469.7714959 -125.7522,568.6707959 -164.9938,98.8991 -448.6047,37.0872 -626.9763,-89.6275 -178.3717,-126.7148 -251.5041,-318.332 -193.5333,-496.041496 57.9708,-178.482404 247.0448,-343.056904 447.7129,-346.920104 201.5599,-3.0907 414.7142,155.3026 498.5489,363.9183041 z"
       id="path3054"
       style="fill:#f2f2f2;stroke-width:8.30119" /><g
       id="g3064"
       style="display:inline;mix-blend-mode:normal;fill:#000000;fill-opacity:1"
       transform="matrix(19.347501,0,0,23.587519,-2732.3144,-1445.0181)"><g
         aria-label="S"
         transform="matrix(0.82940165,0.2359965,-0.34600465,1.1072369,6.1962294,18.441828)"
         id="g3058"
         style="font-weight:bold;font-size:22.6256px;font-family:'Segoe Print';-inkscape-font-specification:'Segoe Print Bold';fill:#000000;fill-opacity:1;stroke-width:6.5669"><path
           d="m 68.604532,25.188794 c 0.187753,-1.083517 -0.912955,-2.083983 -1.971064,-1.924616 -1.893812,-0.09742 -3.923227,0.598341 -5.11857,2.117252 -0.561141,0.980175 0.229706,2.219362 1.268752,2.417029 2.245332,0.968108 4.898094,1.191224 6.73775,2.947548 0.927602,0.918511 0.891472,2.505389 0.06431,3.477775 -1.235065,1.657929 -3.220528,2.507234 -5.105205,3.201132 -1.806214,0.589816 -3.780957,0.911383 -5.655179,0.478414 -1.094094,-0.370137 -1.532024,-1.953414 -0.600265,-2.719923 0.900742,-0.516271 1.804409,0.33375 2.729535,0.330832 2.052037,0.175803 4.020913,-0.684832 5.763135,-1.679757 0.869789,-0.529648 0.845702,-1.939982 -0.268056,-2.128124 -2.245434,-1.044856 -4.856841,-1.332729 -6.848429,-2.88878 -1.340136,-1.307698 -1.202579,-3.645727 0.08313,-4.943263 2.10607,-2.490849 5.68112,-3.560173 8.833706,-2.833506 1.146808,0.280628 2.351498,1.223955 2.229404,2.522444 -0.104364,1.05419 -1.120932,1.753923 -2.142949,1.625543 z"
           id="path3056"
           class="UnoptimicedTransforms"
           style="fill:#000000;fill-opacity:1" /></g><path
         id="path3060"
         style="fill:#000000;fill-opacity:1;stroke-width:0.360536"
         d="m 53.412439,62.992365 a 0.87000954,0.8539021 0 0 1 -0.864576,0.853886 0.87000954,0.8539021 0 0 1 -0.875375,-0.843219 0.87000954,0.8539021 0 0 1 0.85364,-0.864419 0.87000954,0.8539021 0 0 1 0.88604,0.832421" /><path
         style="fill:#000000;fill-opacity:1;stroke-width:0.108552;stroke-dasharray:none"
         d="m 56.739394,65.040091 c 1.038495,-5.173412 9.612614,-3.566628 11.027238,0.604605 1.590554,5.896936 -4.947331,8.04101 -9.542135,8.422042 -3.003694,0.257268 -3.692823,4.692759 -5.710519,4.822904 -1.831424,-3.427162 2.027575,-8.338548 6.03856,-7.619674 3.639148,1.158771 9.934732,-3.388508 5.123493,-6.169581 -2.232459,-0.764102 -4.653281,-0.301931 -6.936637,-0.0603 z"
         id="path3062" /></g></g></svg>
