<svg id="visual" viewBox="0 0 1260 864" width="1500" height="864" xmlns="http://www.w3.org/2000/svg" xmlns:xlink="http://www.w3.org/1999/xlink" version="1.1"><rect x="0" y="0" width="1260" height="864" fill="#002233"></rect><path d="M892 864L875.2 843.5C858.3 823 824.7 782 808 740.8C791.3 699.7 791.7 658.3 797.3 617.2C803 576 814 535 841.3 493.8C868.7 452.7 912.3 411.3 945.3 370.2C978.3 329 1000.7 288 1004.8 246.8C1009 205.7 995 164.3 964.2 123.2C933.3 82 885.7 41 861.8 20.5L838 0L1260 0L1260 20.5C1260 41 1260 82 1260 123.2C1260 164.3 1260 205.7 1260 246.8C1260 288 1260 329 1260 370.2C1260 411.3 1260 452.7 1260 493.8C1260 535 1260 576 1260 617.2C1260 658.3 1260 699.7 1260 740.8C1260 782 1260 823 1260 843.5L1260 864Z" fill="#FCAF3C" stroke-linecap="round" stroke-linejoin="miter"></path></svg>